<?xml version="1.0" encoding="UTF-8" standalone="no"?>
<!DOCTYPE svg PUBLIC "-//W3C//DTD SVG 1.1//EN" "http://www.w3.org/Graphics/SVG/1.1/DTD/svg11.dtd">
<svg width="100%" height="100%" viewBox="0 0 200 200" version="1.1" xmlns="http://www.w3.org/2000/svg" xmlns:xlink="http://www.w3.org/1999/xlink" xml:space="preserve" xmlns:serif="http://www.serif.com/" style="fill-rule:evenodd;clip-rule:evenodd;stroke-linejoin:round;stroke-miterlimit:1.41421;">
    <g transform="matrix(0.365332,0,0,0.365332,6.11813,2.2788)">
        <path d="M494.345,485.517L17.655,485.517C7.904,485.517 0,477.613 0,467.862L0,61.793C0,52.042 7.904,44.138 17.655,44.138L494.345,44.138C504.096,44.138 512,52.042 512,61.793L512,467.862C512,477.612 504.095,485.517 494.345,485.517Z" style="fill:rgb(239,242,250);fill-rule:nonzero;"/>
    </g>
    <g transform="matrix(0.365332,0,0,0.365332,6.11813,2.2788)">
        <path d="M512,132.414L0,132.414L0,61.793C0,52.042 7.904,44.138 17.655,44.138L494.345,44.138C504.096,44.138 512,52.042 512,61.793L512,132.414Z" style="fill:rgb(127,203,195);fill-rule:nonzero;"/>
    </g>
    <g transform="matrix(0.365332,0,0,0.365332,6.11813,2.2788)">
        <rect x="0" y="132.414" width="512" height="17.655" style="fill:rgb(228,234,246);"/>
    </g>
    <g transform="matrix(0.365332,0,0,0.365332,6.11813,2.2788)">
        <path d="M75.034,97.103C67.721,97.103 61.793,91.174 61.793,83.862L61.793,39.724C61.793,32.411 67.722,26.483 75.034,26.483C82.347,26.483 88.275,32.412 88.275,39.724L88.275,83.862C88.276,91.175 82.347,97.103 75.034,97.103Z" style="fill:rgb(199,207,226);fill-rule:nonzero;"/>
    </g>
    <g transform="matrix(0.365332,0,0,0.365332,6.11813,2.2788)">
        <path d="M75.034,70.621C67.721,70.621 61.793,64.692 61.793,57.38L61.793,83.863C61.793,91.176 67.722,97.104 75.034,97.104C82.347,97.104 88.275,91.175 88.275,83.863L88.275,57.379C88.276,64.692 82.347,70.621 75.034,70.621Z" style="fill:rgb(175,185,210);fill-rule:nonzero;"/>
    </g>
    <g transform="matrix(0.365332,0,0,0.365332,6.11813,2.2788)">
        <path d="M436.966,97.103C429.653,97.103 423.725,91.174 423.725,83.862L423.725,39.724C423.725,32.411 429.654,26.483 436.966,26.483C444.279,26.483 450.207,32.412 450.207,39.724L450.207,83.862C450.207,91.175 444.278,97.103 436.966,97.103Z" style="fill:rgb(199,207,226);fill-rule:nonzero;"/>
    </g>
    <g transform="matrix(0.365332,0,0,0.365332,6.11813,2.2788)">
        <path d="M436.966,70.621C429.653,70.621 423.725,64.692 423.725,57.38L423.725,83.863C423.725,91.176 429.654,97.104 436.966,97.104C444.278,97.104 450.207,91.175 450.207,83.863L450.207,57.379C450.207,64.692 444.278,70.621 436.966,70.621Z" style="fill:rgb(175,185,210);fill-rule:nonzero;"/>
    </g>
    <g transform="matrix(1,0,0,1,-160.367,-263.807)">
        <text x="175.842px" y="429.325px" style="font-family:'FiraCode-Bold', 'Fira Code', monospace;font-weight:700;font-size:144px;fill:rgb(127,203,195);">31</text>
    </g>
</svg>
